<svg xmlns="http://www.w3.org/2000/svg" width="24.947" height="24.95" viewBox="0 0 24.947 24.95" fill="currentColor"><defs><style>.a{fill:#ed5479;opacity:0.896;}</style></defs><path class="a" d="M24.777,10.852l0,0L14.6.673a2.3,2.3,0,0,0-3.248,0L1.177,10.845l-.01.01a2.3,2.3,0,0,0,1.528,3.913c.024,0,.047,0,.071,0h.405v7.49A2.691,2.691,0,0,0,5.86,24.95H9.841a.731.731,0,0,0,.731-.731V18.347A1.228,1.228,0,0,1,11.8,17.12h2.349a1.228,1.228,0,0,1,1.226,1.226v5.872a.731.731,0,0,0,.731.731h3.982a2.691,2.691,0,0,0,2.688-2.688v-7.49h.376a2.3,2.3,0,0,0,1.626-3.92Zm-1.035,2.213a.83.83,0,0,1-.59.245H22.044a.731.731,0,0,0-.731.731v8.221a1.228,1.228,0,0,1-1.226,1.226H16.836V18.347s-1.206-2.688-2.688-2.688H11.8A2.692,2.692,0,0,0,9.11,18.347v5.141H5.86a1.228,1.228,0,0,1-1.226-1.226V14.041A.731.731,0,0,0,3.9,13.31H2.814l-.034,0A.834.834,0,0,1,2.2,11.884h0L12.383,1.707a.835.835,0,0,1,1.181,0L23.738,11.881l0,0A.837.837,0,0,1,23.742,13.065Zm0,0" transform="translate(-0.499)"/></svg>